<svg width="254" height="288" viewBox="0 0 254 288" fill="none" xmlns="http://www.w3.org/2000/svg">
<path d="M112.5 7.52628C116.177 5.40331 118.873 3.84797 121.151 2.81634C123.408 1.79379 125.182 1.32051 127 1.32051C128.818 1.32051 130.592 1.79379 132.849 2.81634C135.127 3.84797 137.823 5.40331 141.5 7.52628L237.94 63.2058C241.617 65.3287 244.312 66.886 246.344 68.3424C248.358 69.7861 249.655 71.0861 250.564 72.6603C251.473 74.2344 251.95 76.0077 252.193 78.4739C252.439 80.962 252.44 84.0746 252.44 88.3205V199.679C252.44 203.925 252.439 207.038 252.193 209.526C251.95 211.992 251.473 213.766 250.564 215.34C249.655 216.914 248.358 218.214 246.344 219.658C244.312 221.114 241.617 222.671 237.94 224.794L141.5 280.474C137.823 282.597 135.127 284.152 132.849 285.184C130.592 286.206 128.818 286.68 127 286.68C125.182 286.68 123.408 286.206 121.151 285.184C118.873 284.152 116.177 282.597 112.5 280.474L16.0603 224.794C12.3832 222.671 9.68815 221.114 7.65606 219.658C5.64184 218.214 4.34479 216.914 3.43593 215.34C2.52708 213.766 2.04977 211.992 1.80667 209.526C1.56141 207.038 1.56029 203.925 1.56029 199.679V88.3205C1.56029 84.0746 1.56141 80.962 1.80667 78.4739C2.04977 76.0077 2.52708 74.2344 3.43593 72.6603C4.34479 71.0861 5.64184 69.7861 7.65606 68.3425C9.68815 66.886 12.3832 65.3287 16.0603 63.2058L112.5 7.52628Z" stroke="white" stroke-opacity="0.4" stroke-width="2"/>
</svg>
