<svg width="26" height="25" viewBox="0 0 26 25" fill="none" xmlns="http://www.w3.org/2000/svg">
<path d="M15.3334 20.1667C19.7329 20.1667 21.9332 20.1667 23.2994 18.7993C24.6667 17.4332 24.6667 15.2328 24.6667 10.8333C24.6667 6.43383 24.6667 4.2335 23.2994 2.86733C21.9332 1.5 19.7329 1.5 15.3334 1.5H10.6667C6.26721 1.5 4.06687 1.5 2.70071 2.86733C1.33337 4.2335 1.33337 6.43383 1.33337 10.8333C1.33337 15.2328 1.33337 17.4332 2.70071 18.7993C3.46254 19.5623 4.48337 19.8995 6.00004 20.0477" stroke="white" stroke-width="2" stroke-linecap="round" stroke-linejoin="round"/>
<path d="M13 10.8334V11.4167" stroke="white" stroke-width="2" stroke-linecap="round"/>
<path d="M8.33337 10.8334V11.4167" stroke="white" stroke-width="2" stroke-linecap="round"/>
<path d="M17.6667 10.8334V11.4167" stroke="white" stroke-width="2" stroke-linecap="round"/>
<path d="M15.3334 20.1666C13.8914 20.1666 12.3024 20.75 10.8522 21.5025C8.5212 22.7123 7.3557 23.3178 6.7817 22.9316C6.2077 22.5466 6.3162 21.3508 6.53437 18.9603L6.58337 18.4166" stroke="white" stroke-width="2" stroke-linecap="round"/>
</svg>
