<svg width="25" height="21" viewBox="0 0 25 21" fill="none" xmlns="http://www.w3.org/2000/svg">
<path d="M24.6133 3.34842C23.7087 3.74925 22.737 4.02009 21.7154 4.1425C22.7695 3.51178 23.5581 2.51909 23.9341 1.34967C22.9437 1.93791 21.8598 2.35196 20.7296 2.57384C19.9695 1.76227 18.9627 1.22436 17.8656 1.0436C16.7684 0.862842 15.6423 1.04936 14.6621 1.57419C13.6818 2.09903 12.9022 2.93281 12.4444 3.9461C11.9865 4.95938 11.876 6.09548 12.1301 7.178C10.1234 7.07725 8.16032 6.55568 6.36826 5.64715C4.57621 4.73862 2.99521 3.46343 1.72789 1.90434C1.29455 2.65184 1.04539 3.5185 1.04539 4.4415C1.0449 5.27241 1.24952 6.0906 1.64109 6.82346C2.03265 7.55633 2.59906 8.18121 3.29005 8.64267C2.48869 8.61717 1.705 8.40063 1.00422 8.01109V8.07609C1.00414 9.24147 1.40726 10.371 2.14517 11.273C2.88308 12.175 3.91034 12.7939 5.05264 13.0248C4.30924 13.2259 3.52984 13.2556 2.7733 13.1114C3.09559 14.1142 3.72338 14.991 4.56878 15.6193C5.41419 16.2475 6.43488 16.5956 7.48797 16.6149C5.70029 18.0183 3.49251 18.7795 1.2198 18.7762C0.817216 18.7763 0.414969 18.7528 0.0151367 18.7058C2.32207 20.189 5.0075 20.9762 7.75014 20.9732C17.0343 20.9732 22.1097 13.2837 22.1097 6.61467C22.1097 6.398 22.1043 6.17917 22.0946 5.9625C23.0818 5.24856 23.934 4.36447 24.6111 3.35167L24.6133 3.34842Z" fill="white"/>
</svg>
